<svg xmlns="http://www.w3.org/2000/svg" version="1.1" xmlns:xlink="http://www.w3.org/1999/xlink" xmlns:svgjs="http://svgjs.dev/svgjs" width="1440" height="560" preserveAspectRatio="none" viewBox="0 0 1440 560"><g mask="url(&quot;#SvgjsMask1102&quot;)" fill="none"><rect width="1440" height="560" x="0" y="0" fill="rgba(0, 0, 0, 1)"></rect><circle r="7.79" cx="497.09000000000003" cy="266.01000000000005" filter="url(#SvgjsFilter1103)" fill="rgba(255, 255, 255, 1)"></circle><circle r="6.075" cx="492.47499999999997" cy="168.815" filter="url(#SvgjsFilter1103)" fill="rgba(255, 255, 255, 1)"></circle><circle r="8.175" cx="147.41500000000002" cy="283.83500000000004" filter="url(#SvgjsFilter1103)" fill="rgba(255, 255, 255, 1)"></circle><circle r="8.225" cx="1075.3049999999998" cy="82.41499999999999" filter="url(#SvgjsFilter1103)" fill="rgba(255, 255, 255, 1)"></circle><circle r="7.85" cx="1353.8999999999999" cy="79.55999999999999" filter="url(#SvgjsFilter1103)" fill="rgba(255, 255, 255, 1)"></circle><circle r="6.045" cx="434.27500000000003" cy="358.64500000000004" filter="url(#SvgjsFilter1103)" fill="rgba(255, 255, 255, 1)"></circle><circle r="9.2" cx="1230.03" cy="185.7" filter="url(#SvgjsFilter1103)" fill="rgba(255, 255, 255, 1)"></circle><circle r="8.055" cx="394.595" cy="274.685" filter="url(#SvgjsFilter1103)" fill="rgba(255, 255, 255, 1)"></circle><circle r="5.495" cx="1151.945" cy="484.265" filter="url(#SvgjsFilter1103)" fill="rgba(255, 255, 255, 1)"></circle><circle r="5.91" cx="41.53" cy="98.50999999999999" filter="url(#SvgjsFilter1103)" fill="rgba(255, 255, 255, 1)"></circle><circle r="8.785" cx="12.945" cy="281.125" filter="url(#SvgjsFilter1103)" fill="rgba(255, 255, 255, 1)"></circle><circle r="5.735" cx="240.79500000000002" cy="86.425" filter="url(#SvgjsFilter1103)" fill="rgba(255, 255, 255, 1)"></circle><circle r="6.905" cx="1125.715" cy="432.325" filter="url(#SvgjsFilter1103)" fill="rgba(255, 255, 255, 1)"></circle><circle r="6.715" cx="1242.7649999999999" cy="364.85499999999996" filter="url(#SvgjsFilter1103)" fill="rgba(255, 255, 255, 1)"></circle><circle r="8.535" cx="288.685" cy="410.475" filter="url(#SvgjsFilter1103)" fill="rgba(255, 255, 255, 1)"></circle><circle r="4.67" cx="369.68" cy="153.01999999999998" filter="url(#SvgjsFilter1103)" fill="rgba(255, 255, 255, 1)"></circle><circle r="5.455" cx="473.195" cy="205.04500000000002" filter="url(#SvgjsFilter1103)" fill="rgba(255, 255, 255, 1)"></circle><circle r="5.52" cx="489.12" cy="288.22999999999996" filter="url(#SvgjsFilter1103)" fill="rgba(255, 255, 255, 1)"></circle><circle r="7.4" cx="314.73999999999995" cy="75.21000000000001" filter="url(#SvgjsFilter1103)" fill="rgba(255, 255, 255, 1)"></circle><circle r="9.215" cx="1164.715" cy="328.34499999999997" filter="url(#SvgjsFilter1103)" fill="rgba(255, 255, 255, 1)"></circle><path d="M952.2 420.8L932.2 419 939.6 407.7C940.5 406.6 940.3 404.5 938.9 403.1 937.1 402.5 935.1 402.7 934.3 403.8L924.2 418.5 905.6 416.7 926.3 387.1C927.5 385.1 927.3 383.1 925.5 382.5 924.1 381 922.1 381.3 921 383.2L898.2 416 881.3 414.7 864.6 379.5 872.9 367 915.2 371.1C915.8 370.8 916.4 370.5 916.9 370.3 917.5 370 918.4 368.9 918.7 368 919 365.7 917.6 364.3 915.6 364.5L877.1 360.8 887.7 345.9 907.4 347.2C907.7 347.7 908.3 347.5 908.8 347.2 910 346.6 910.9 345.5 910.9 344.1 910.9 342.7 909.5 341.2 907.8 340.6L891.8 339.7 904.8 320.8C905.7 319.6 905.5 317.6 904.1 316.2 902.3 315.6 900.3 315.8 899.5 316.9L887.3 334.7 881.6 322.6C880.8 320.8 878.5 320.5 877.3 321 875.6 321.9 874.4 323.8 875.2 325.6L882.6 341.2 872 356.1 856.7 323.8C855.8 322 854.1 321.4 852.4 322.2 850.7 323.1 850 324.8 850.9 326.5L867.9 362.4 859.3 375.6 820.1 372.2 813.8 358.9 836.9 325.3C838.3 323.9 837.8 321.4 836.1 320.7 834.7 319.3 833 320.1 831.5 321.5L810.5 352 802.6 335.2 813.2 320.3C814.1 319.1 813.6 316.5 812.5 315.7S808.7 315.3 807.3 316.7L799.3 328.3 789.7 308C788.9 306.3 786.6 306 784.9 306.8 783.7 307.3 782.5 309.3 783.3 311L792.9 331.3 778.4 330.4C776.9 330.4 775.2 331.2 774.9 333.5 774.8 334.9 776.5 336.9 777.9 337L796.2 338.2 804.2 355 767.3 351.9C765.3 352.2 763.6 353 763.2 355.3 763.2 356.7 764.9 358.7 766.3 358.8L807.5 361.9 813.8 375.2 791.6 407.7 775.9 405.9 758.9 370.1C758.1 368.3 756.4 367.7 754.6 368.5 752.9 369.4 751.7 371.3 752.5 373.1L767.9 405.5 749.6 404.2 742.2 388.6C741.4 386.9 739.7 386.3 737.9 387.1 736.2 387.9 735.6 389.6 736.4 391.3L742.2 403.5 720.7 401.6C719.3 401.6 717.3 403.3 717.2 404.7 717.5 406.7 718.3 408.4 720.3 408.2L742.6 410.4 733.7 423.1C733.1 424.8 733.4 426.8 734.5 427.7 735.6 428.5 737.1 428.6 738.2 428 738.2 428 738.8 427.8 739.1 426.9L750.6 410.8 768.9 412.1 747.3 444.3C745.9 445.7 746.1 447.7 748.1 448.8 748.9 449.2 749.8 449.5 750.9 448.9 751.5 448.6 752.1 448.4 752.7 448.1L776.3 412.8 791.2 414.3 807.9 449.5 798.2 463.4 758.4 460.2C756.1 459.9 754.7 461.3 754.9 463.3 754.3 465 755.7 466.5 758 466.8L794 469.6 783.7 485.1 765.9 483.6C764.5 483.6 763.1 485 762.4 486.7 762.7 488.7 763.5 490.4 765.5 490.2L778.9 491.6 767.7 508.2C766.3 509.6 767.1 511.4 768.5 512.8 769.3 513.1 770.8 513.2 771.9 512.6 771.9 512.6 772.5 512.3 773.1 512.1L785.2 494.3 792 508.8C792.6 509.9 794.6 511.1 796.3 510.3 798 509.5 798.4 507.2 797.8 506L789.3 488.1 799.7 472.6 816.4 507.8C817.2 509.6 819.5 509.9 821.2 509.1S823.6 506.6 822.8 504.8L804.4 466.1 813.3 453.4 852.4 456.8 859.5 471.8 835.9 505.7C835.3 507.4 835.5 509.4 836.9 510.9 837.8 511.2 839.2 511.2 840.4 510.6 841 510.4 841.5 510.1 841.8 509.2L862.8 478.8 870.8 495.5 860.4 511.1C859.5 512.2 859.8 514.2 861.2 515.7 862.9 516.3 864.9 516 865.8 514.9L874 502.5 882.8 521C883.4 522.1 885.9 523.1 887.1 522.5 888.8 521.7 889.7 519.1 889.2 518L880.4 499.5 894.7 501.2C895.3 500.9 895.8 500.7 896.4 500.4 897.6 499.8 898.5 498.7 898.8 497.9 898.5 495.8 897.1 494.4 895.4 493.8L877.1 492.5 869.2 475.8 906 478.8C908.3 479.2 909.8 477.8 909.8 476.3 910.1 474 908.7 472.6 907 472L865.9 468.8 858.8 453.8 880.9 421.3 896.4 422.5 914.7 461.3C915.5 463 917.2 463.6 919 462.8 920.7 462 921.3 460.3 920.5 458.5L903.8 423.2 922.4 425.1 930.8 443C931.4 444.1 934 445.1 935.7 444.2 937.4 443.4 937.8 441.1 937.2 440L930.4 425.5 951.8 427.4C952.4 427.1 952.4 427.1 952.9 426.9 954.1 426.3 955 425.2 955.3 424.3 955 422.3 953.6 420.9 952.2 420.8ZM855.5 446.8L852.8 450.2 849.1 449.8 817.4 447.2 813.7 446.8 812 443.3 798.6 415 797 411.5 799 408.4 817.1 382.2 819.1 379.1 823.4 379.2 854.6 382.1 858.8 382.2 860.5 385.7 873.9 414 875.6 417.5 872.9 420.9 855.5 446.8Z" fill="rgba(255, 255, 255, 1)"></path><path d="M1457.9 414.7L1438 417.1 1442.8 404.5C1443.4 403.2 1442.7 401.3 1441.1 400.2 1439.3 400 1437.3 400.6 1436.7 401.9L1430 418.4 1411.5 420.6 1425.4 387.2C1426.1 385 1425.5 383.1 1423.7 382.9 1422 381.8 1420.1 382.4 1419.3 384.6L1404.1 421.4 1387.4 423.8 1363.5 392.9 1369 379 1411.1 374C1411.6 373.6 1412.1 373.2 1412.6 372.8 1413.2 372.4 1413.8 371.1 1413.9 370.2 1413.7 367.9 1412.1 366.8 1410.1 367.5L1371.7 372.1 1378.9 355.2 1398.4 352.2C1398.8 352.8 1399.3 352.4 1399.8 352 1400.8 351.2 1401.5 349.9 1401.2 348.5 1400.9 347.1 1399.2 346 1397.4 345.7L1381.6 348.3 1390.3 327C1390.9 325.7 1390.2 323.8 1388.5 322.7 1386.7 322.5 1384.8 323.1 1384.2 324.4L1376.2 344.4 1368 333.7C1366.8 332.2 1364.5 332.4 1363.5 333.1 1361.9 334.3 1361.2 336.5 1362.4 338L1372.9 351.7 1365.7 368.6 1343.8 340.2C1342.7 338.7 1340.9 338.4 1339.4 339.6 1337.8 340.8 1337.6 342.6 1338.8 344.1L1363 375.5 1357.5 390.3 1318.5 395.3 1309.5 383.7 1324.8 346C1326 344.3 1324.9 341.9 1323.1 341.6 1321.4 340.5 1319.9 341.7 1318.8 343.3L1304.8 377.6 1293.5 362.9 1300.7 346C1301.3 344.7 1300.2 342.3 1298.9 341.7S1295.2 342.1 1294.1 343.8L1288.8 356.8 1275.1 339.1C1273.9 337.6 1271.6 337.7 1270.1 338.9 1269.1 339.7 1268.3 341.9 1269.5 343.4L1283.2 361.1 1268.8 363.4C1267.4 363.6 1265.8 364.8 1266 367.1 1266.3 368.5 1268.3 370.2 1269.7 369.9L1287.9 367.2 1299.2 381.9 1262.6 386.7C1260.6 387.4 1259.1 388.6 1259.3 390.9 1259.6 392.3 1261.6 393.9 1263 393.6L1303.9 388 1312.9 399.6 1298.2 436.1 1282.4 437.7 1258.2 406.3C1257 404.7 1255.2 404.5 1253.7 405.7 1252.2 406.9 1251.5 409 1252.6 410.6L1274.5 438.9 1256.4 441.6 1245.8 427.9C1244.7 426.4 1242.9 426.2 1241.3 427.4 1239.8 428.5 1239.6 430.3 1240.8 431.8L1249 442.5 1227.6 445.2C1226.2 445.5 1224.6 447.6 1224.9 449 1225.5 450.9 1226.7 452.4 1228.6 451.7L1250.9 449.1 1244.9 463.4C1244.7 465.2 1245.3 467.1 1246.6 467.7 1247.9 468.4 1249.3 468.1 1250.3 467.3 1250.3 467.3 1250.8 466.9 1251 466L1258.8 447.9 1276.9 445.2 1262.7 481.2C1261.6 482.9 1262.2 484.8 1264.4 485.5 1265.3 485.7 1266.2 485.8 1267.2 485 1267.7 484.6 1268.2 484.2 1268.7 483.8L1284.3 444.3 1299.2 442.6 1323 473.5 1316.4 489.1 1276.9 494.5C1274.6 494.6 1273.5 496.3 1274.2 498.2 1274 500 1275.6 501.1 1277.9 501L1313.7 496 1306.9 513.4 1289.3 515.7C1287.9 515.9 1286.7 517.6 1286.5 519.4 1287.2 521.3 1288.3 522.9 1290.3 522.2L1303.7 520.7 1296.2 539.4C1295.1 541.1 1296.3 542.6 1298 543.7 1298.9 543.8 1300.3 543.6 1301.3 542.8 1301.3 542.8 1301.8 542.4 1302.3 542L1310.3 522 1320.1 534.7C1320.9 535.7 1323.1 536.5 1324.6 535.3 1326.1 534.1 1326 531.8 1325.2 530.8L1313.1 515.1 1319.9 497.7 1343.7 528.6C1344.9 530.1 1347.2 530 1348.7 528.8S1350.5 525.8 1349.3 524.3L1323.1 490.4 1329.1 476.1 1368 471.1 1378.2 484.2 1362.3 522.4C1362.1 524.2 1362.8 526.1 1364.4 527.2 1365.3 527.3 1366.7 527 1367.8 526.3 1368.3 525.9 1368.8 525.5 1368.9 524.6L1382.9 490.3 1394.2 505 1387.4 522.4C1386.8 523.7 1387.5 525.6 1389.1 526.7 1390.9 527 1392.8 526.3 1393.5 525L1398.9 511.1 1411.4 527.3C1412.2 528.3 1414.9 528.7 1415.9 527.9 1417.4 526.7 1417.8 524 1417 523L1404.5 506.8 1418.8 505.5C1419.3 505.1 1419.8 504.7 1420.3 504.3 1421.3 503.5 1422 502.2 1422.1 501.3 1421.4 499.4 1419.7 498.3 1417.9 498L1399.8 500.7 1388.5 486 1425.1 481.2C1427.4 481 1428.6 479.3 1428.3 477.9 1428.1 475.6 1426.4 474.5 1424.7 474.3L1383.8 479.9 1373.6 466.8 1388.3 430.3 1403.7 428.2 1429.9 462.2C1431 463.7 1432.8 463.9 1434.4 462.7 1435.9 461.6 1436.1 459.8 1434.9 458.3L1411.1 427.3 1429.6 425.2 1441.7 440.9C1442.5 441.9 1445.2 442.2 1446.7 441.1 1448.3 439.9 1448.1 437.6 1447.3 436.6L1437.5 423.9 1458.9 421.2C1459.4 420.8 1459.4 420.8 1459.9 420.4 1460.9 419.6 1461.5 418.3 1461.6 417.4 1461 415.5 1459.3 414.4 1457.9 414.7ZM1368.9 460.7L1367 464.6 1363.3 465 1331.8 469.1 1328.1 469.6 1325.7 466.5 1306.6 441.7 1304.2 438.7 1305.6 435.2 1317.6 405.7 1319 402.2 1323.2 401.4 1354.2 397.7 1358.4 396.8 1360.8 399.9 1379.9 424.7 1382.3 427.7 1380.4 431.6 1368.9 460.7Z" fill="rgba(255, 255, 255, 1)"></path><path d="M315.5 81L308.4 120.2 279.1 140.2 276.4 104.8 302.5 74.8C302.5 74.8 302.7 74.3 302.7 74.3 303.1 73.5 302.6 72.2 302 71.3 300.9 70.3 299.2 70.5 298.6 71.8L275.8 98.2 274.4 81 284.3 69.3C284.3 69.3 284.5 68.8 284.5 68.8 285 68 284.5 66.7 283.8 65.8 282.8 64.8 281 65 280.4 66.3L273.5 74.2 272.6 61.5C272.6 60.5 271.1 59.2 270 59.2 268.5 59 267.7 60.8 267.7 61.8L268.5 74.5 260.7 67.5C259.6 66.5 257.9 66.7 257.3 68 256.2 69.1 256.5 70.8 257.8 71.4L269.5 81.3 270.5 98.3 244.1 75.5C243 74.5 241.3 74.7 240.7 76 239.6 77.1 239.8 78.8 241.1 79.5L271.2 105.6 274 140.9 241.5 125.4 228.2 87.6C227.7 86.3 226.4 85.7 225.2 86.2 223.9 86.6 223.3 87.9 223.7 89.2L235.4 122.5 219.9 115 214.9 101C214.4 99.7 213.1 99.1 211.9 99.5 210.6 100 210 101.3 210.4 102.5L213.8 112.1 201.7 106.3C200.6 105.3 199.1 106.2 198.5 107.5 197.9 108.8 198.3 110 199.6 110.7L210.9 116.1 201.3 119.4C200 119.9 199.4 121.2 199.8 122.5S201.6 124.4 202.8 123.9L216.9 119 232.5 126.4 199.2 138.2C197.9 138.6 197.3 139.9 197.8 141.2 198.2 142.5 199.5 143.1 200.8 142.6L238.6 129.3 270.6 144.7 241.3 164.7 203.2 157.6C201.7 157.4 200.6 158.5 200 159.8 199.8 161.3 200.9 162.4 202.2 163L236.5 169.3 222.2 179 207.2 176C205.7 175.8 204.6 176.9 204 178.2 203.8 179.7 204.9 180.8 205.8 181.2L216.1 182.9 205.7 190.2C204.8 190.9 204 192.6 205.1 193.7 206.2 194.7 207.5 195.3 208.6 194.2L218.9 187 217.2 197.3C217 198.8 218.1 199.9 219 200.3 220 200.3 221.3 199.8 221.7 199 221.7 199 221.9 198.5 221.9 198.5L224.9 183.4 239.1 173.7 232.8 208C232.6 209.5 233.7 210.6 234.6 211 235.7 210.9 237 210.5 237.4 209.6 237.4 209.6 237.6 209.2 237.6 209.2L244.6 170 273.9 150 276.7 185.3 250.6 215.4C249.5 216.5 249.8 218.2 251.1 218.8 252.1 219.9 253.9 219.7 254.5 218.4L277.2 192 278.6 209.1 268.7 220.9C267.6 222 267.9 223.7 269.2 224.3 270.3 225.4 272 225.1 272.6 223.8L279.6 216 280.4 228.6C280.4 229.7 282 231 283 231 284.1 230.9 285 230.3 285.4 229.4 285.6 229 285.8 228.6 285.6 227.9L284.7 215.3 292.5 222.2C293.6 223.3 295.4 223 296 221.7 296 221.7 296.2 221.3 296.2 221.3 296.6 220.4 296.1 219.1 295.5 218.3L283.7 208.4 282.4 191.3 308.7 214C309.8 215 311.5 214.8 312.2 213.5 312.2 213.5 312.4 213.1 312.4 213.1 312.8 212.2 312.3 210.9 311.7 210.1L281.6 184 278.8 148.6 310.9 163.9 324.2 201.7C324.6 203 325.9 203.6 327.2 203.1 328.5 202.7 329.1 201.4 328.7 200.1L317.4 167 333 174.5 337.9 188.6C338.4 189.9 339.7 190.5 340.9 190S342.8 188.3 342.4 187L339 177.4 350.3 182.8C351.6 183.4 352.8 183 353.5 181.7 354.1 180.4 353.6 179.1 352.3 178.5L341.1 173.1 350.7 169.7C351.3 169.5 352 169.2 352.4 168.4S352.6 166.9 352.3 166.2C351.9 164.9 350.6 164.3 349.3 164.8L335.2 169.7 319.6 162.3 352.9 150.5C353.6 150.3 354.2 150.1 354.6 149.2 354.8 148.8 354.8 147.7 354.6 147.1 354.1 145.8 352.8 145.2 351.6 145.6L313.8 158.9 281.8 143.6 311 123.6 350.2 130.6C351.3 130.6 352.6 130.1 353 129.3 353 129.3 353.2 128.8 353.2 128.8 353.4 127.3 352.3 126.3 351.4 125.9L317.2 119.6 331.4 109.9 346.5 112.9C347.6 112.8 348.8 112.4 349.3 111.5 349.3 111.5 349.5 111.1 349.5 111.1 349.7 109.6 348.6 108.5 347.7 108.1L337.4 106.4 347.8 99.1C348 98.7 348.6 98.4 348.8 98 349.2 97.1 349.2 96.1 348.5 95.2 347.5 94.2 346.2 93.5 345.1 94.6L334.7 101.9 336.5 91.6C336.7 90.1 335.6 89 334.7 88.6 333.2 88.4 332.1 89.5 331.7 90.4L328.8 105.4 314.5 115.1 320.8 80.9C321 79.4 319.9 78.3 319.1 77.9 317.1 78.6 315.6 79.5 315.5 81Z" fill="rgba(255, 255, 255, 1)"></path><path d="M1001.3 378.5L1004.5 389.3 997.8 388C997.1 387.8 996.3 388.3 995.8 389.2 995.9 390.1 996.4 391 997.3 390.9L1005.5 392.8 1008.4 401.1 991.2 397.1C990.3 397.1 989.4 397.6 989.2 398.3 989 399.4 989.5 400.3 990.4 400.3L1009.4 404.7 1013.4 417.4 998.9 412.4 1005.2 426.4 992.1 423.5 986.1 405C986.3 404.8 986.1 404.6 985.9 404.3 985.4 403.9 984.7 403.7 984 404 983.4 404.2 983 405.1 983 406L988.5 422.8 980 420.7 977.4 412.6C977.4 412.2 977.1 412 976.9 411.8 976.7 411.5 976 411.3 975.3 411.6 974.6 411.9 974.2 412.8 974.5 413.4L976.4 419.9 965.4 417.7C964.5 417.3 963.8 418 963.4 418.9 963.2 419.6 963.7 420.5 964.8 420.7L975.6 423.1 971 428.1C970.4 428.8 970.7 429.9 971.1 430.3 971.9 431 972.8 431 973.4 430.2L979.2 423.9 987.7 426 976 438.7C975.4 439.4 975.4 440.4 976.1 441 976.6 441.4 977.8 441.6 978.4 440.9L991.4 426.7 1004.4 429.6 993.1 439.6 1008.1 441.2 999 451.1 980.3 446.9C979.1 446.8 978.5 447.5 978.3 448.2 978.1 448.8 978.6 449.7 979.5 450.1L996.6 453.7 990.8 460.1 982.3 458.4C981.4 458 980.5 458.5 980.4 459.6 980.2 460.3 980.6 461.2 981.8 461.4L988.2 462.9 980.6 471.2C980 471.9 980 472.8 980.7 473.4S982.3 474 983 473.3L990.6 465.1 992.6 471.3C992.9 472.4 993.8 472.8 994.5 472.6 995.6 472.3 996 471.4 995.5 470.5L993.1 462.2 999 455.9 1004 472.6C1004.5 473.5 1005.4 473.9 1006.1 473.7 1007.2 473.4 1007.6 472.5 1007.1 471.6L1001.4 453.3 1010.4 443.4 1013.4 458.2 1022.3 446 1026.3 458.7 1013.3 472.9C1012.7 473.6 1012.9 474.7 1013.4 475.2 1014.1 475.8 1015 475.8 1015.7 475.1L1027.6 462.1 1030.2 470.6 1024.4 476.9C1023.7 477.7 1023.8 478.6 1024.5 479.2 1024.9 479.6 1026.1 479.8 1026.7 479.1L1031.3 474.2 1034.7 484.7C1034.9 485.8 1035.9 486.2 1036.8 485.7 1037.4 485.4 1038.1 484.7 1037.6 483.8L1034.4 473.1 1041 474.4C1041.7 474.6 1042.6 474.1 1042.8 473.4 1043 472.7 1042.7 472.1 1042.5 471.9 1042.3 471.6 1042 471.4 1041.6 471.4L1033.3 469.5 1030.5 461.3 1047.6 465.3C1048.5 465.2 1049.4 464.8 1049.6 464.1 1049.8 463.4 1049.6 462.7 1049.1 462.3 1048.9 462.1 1048.9 462.1 1048.4 462.1L1029.4 457.7 1025.5 445 1040 450 1033.7 436 1046.7 438.8 1052.7 457.4C1053 458 1053.7 458.7 1054.8 458.4 1055.5 458.1 1055.9 457.2 1055.9 456.3L1050.4 439.6 1058.8 441.7 1061.5 449.7C1061.5 450.6 1062.4 451.1 1063.5 450.8 1064.2 450.5 1064.6 449.6 1064.6 448.7L1062.5 442.4 1073.5 444.7C1074.4 445.1 1075 444.4 1075.5 443.5 1075.4 443 1075.2 442.3 1074.9 442.1 1074.7 441.9 1074.5 441.7 1074 441.7L1063.3 439.2 1067.8 434.3C1068.5 433.6 1068.2 432.5 1067.7 432L1067.7 432C1067 431.4 1066.1 431.4 1065.4 432.1L1059.6 438.5 1051.1 436.4 1062.8 423.6C1063.5 422.9 1063.4 422 1062.7 421.4S1061.1 420.8 1060.4 421.5L1047.5 435.6 1034.4 432.8 1045.8 422.8 1030.8 421.2 1039.8 411.3 1058.6 415.4C1059.7 415.6 1060.4 414.9 1060.6 414.2 1060.8 413.5 1060.3 412.6 1059.4 412.2L1042.4 408.4 1048.1 402.3 1056.5 404C1057.4 404.4 1058.3 403.9 1058.5 402.8 1058.7 402.1 1058.2 401.2 1057.3 400.8L1050.7 399.5 1058.2 391.2C1058.9 390.5 1058.8 389.6 1058.1 389S1056.5 388.3 1055.9 389.1L1048.3 397.3 1046.2 391.1C1046.2 390.6 1046 390.4 1045.7 390.2 1045.2 389.7 1044.8 389.8 1044.3 389.8 1043.2 390.1 1042.8 391 1043.3 391.9L1045.7 400.1 1039.9 406.5 1034.8 389.7C1034.6 389.5 1034.4 389.3 1034.1 389.1 1033.7 388.7 1033.2 388.7 1032.7 388.7 1031.6 389 1031.2 389.9 1031.7 390.8L1037.5 409.1 1028.4 419 1025.5 404.2 1016.5 416.4 1012.6 403.6 1025.5 389.5C1026.2 388.8 1025.9 387.6 1025.4 387.2 1024.7 386.6 1023.8 386.6 1023.2 387.3L1011.5 400 1008.6 391.8 1014.5 385.4C1015.1 384.7 1015.1 383.8 1014.4 383.2S1012.8 382.6 1012.1 383.3L1007.6 388.2 1004.2 377.7C1004.2 377.3 1003.9 377.1 1003.7 376.8 1003.5 376.6 1002.8 376.4 1002.1 376.7 1001.4 376.9 1000.8 377.6 1001.3 378.5ZM1023.8 411.7L1026.1 423.9 1038.4 425.1 1029 433.5 1034.1 444.6 1022.3 440.8 1015.1 450.6 1012.7 438.5 1000.4 437.2 1009.6 429.1 1004.8 417.8 1016.3 421.8 1023.8 411.7Z" fill="rgba(255, 255, 255, 1)"></path><path d="M78.8 503.2L69.6 478.3 79.7 456.9 93.2 476.3 88.3 502.4C88.3 502.4 88.4 502.7 88.4 502.7 88.4 503.4 89.1 504 89.8 504.2 90.8 504.5 91.7 503.7 91.6 502.8L95.8 480 102.3 489.4 100.6 499.5C100.6 499.5 100.7 499.8 100.7 499.8 100.7 500.4 101.4 501 102.1 501.3 103 501.5 103.9 500.8 103.9 499.8L105.2 493 110 500C110.4 500.6 111.7 500.8 112.3 500.4 113.2 500 113.1 498.7 112.7 498.1L107.9 491.1 114.8 492.5C115.8 492.7 116.7 492 116.6 491 116.9 490.1 116.1 489.2 115.2 489.2L105.1 487.5 98.8 478.1 121.7 482.3C122.6 482.5 123.5 481.8 123.5 480.8 123.7 479.8 123 478.9 122 479L95.9 474.2 82.4 454.8 106.3 452.7 126.7 470C127.4 470.5 128.4 470.5 128.9 469.8 129.5 469.1 129.4 468.1 128.8 467.5L110.8 452.4 122.3 451.4 129.9 457.8C130.6 458.4 131.5 458.3 132.1 457.6 132.7 456.9 132.6 456 131.9 455.4L126.7 451 135.6 450.3C136.6 450.5 137.2 449.5 137.1 448.5 137 447.6 136.3 447 135.4 447.1L127.1 447.8 131.5 442.6C132 441.9 132 440.9 131.3 440.3S129.6 439.8 129 440.5L122.6 448.1 111.1 449.1 126.3 431.1C126.9 430.4 126.8 429.5 126.1 428.9 125.4 428.3 124.5 428.4 123.9 429.1L106.7 449.5 83.1 451.5 93.2 430.1 117.5 421.3C118.4 420.9 118.6 419.9 118.5 418.9 118.1 418 117.2 417.8 116.2 417.9L94.4 425.8 99.3 415.4 109 412C109.9 411.6 110.1 410.7 110.1 409.7 109.7 408.8 108.7 408.5 108 408.6L101.5 411.1 105 403.4C105.3 402.7 105.2 401.4 104.2 401.2 103.2 401 102.3 401 102 402L98.5 409.7 96 403.2C95.6 402.3 94.6 402 94 402.1 93.4 402.4 92.8 403.1 92.9 403.8 92.9 403.8 92.9 404.1 92.9 404.1L96.3 413.8 91.4 424.1 83.4 402.3C83 401.4 82 401.2 81.4 401.2 80.8 401.6 80.2 402.3 80.3 402.9 80.3 402.9 80.3 403.2 80.3 403.2L89.5 428.1 79.4 449.5 65.9 430.1 70.7 404C71 403.1 70.2 402.1 69.3 402.2 68.3 402 67.4 402.7 67.5 403.7L63.3 426.5 56.7 417.1 58.4 407C58.7 406 58 405.1 57 405.2 56 405 55.1 405.7 55.2 406.6L53.9 413.5 49.1 406.5C48.7 405.9 47.4 405.7 46.8 406.1 46.2 406.4 45.9 407.1 46 407.7 46 408 46 408.4 46.4 408.7L51.2 415.6 44.3 414.3C43.3 414.1 42.4 414.8 42.5 415.7 42.5 415.7 42.5 416.1 42.5 416.1 42.6 416.7 43.3 417.3 43.9 417.5L54 419.3 60.6 428.7 37.8 424.5C36.8 424.2 35.9 425 36 425.9 36 425.9 36 426.2 36 426.2 36 426.9 36.7 427.5 37.4 427.7L63.5 432.6 77 452 53.4 454 33 436.8C32.3 436.2 31.4 436.3 30.8 437 30.2 437.6 30.3 438.6 31 439.2L48.6 454.4 37.2 455.4 29.6 448.9C28.9 448.4 27.9 448.4 27.3 449.1S26.8 450.8 27.5 451.4L32.7 455.7 24.4 456.4C23.5 456.5 22.9 457.2 23 458.2 23 459.1 23.7 459.7 24.7 459.6L33 458.9 28.6 464.1C28.3 464.5 28 464.8 28.1 465.4S28.5 466.4 28.8 466.7C29.5 467.3 30.5 467.2 31 466.5L37.5 458.9 48.9 457.9 33.8 475.9C33.5 476.2 33.2 476.6 33.2 477.2 33.3 477.5 33.6 478.1 34 478.4 34.7 479 35.6 478.9 36.2 478.2L53.4 457.8 77 455.8 67 477.3 42 486.4C41.4 486.8 40.8 487.5 40.9 488.1 40.9 488.1 40.9 488.4 40.9 488.4 41.3 489.4 42.3 489.6 42.9 489.6L64.8 481.6 59.8 492 50.2 495.4C49.6 495.7 49 496.4 49 497.1 49 497.1 49.1 497.4 49.1 497.4 49.5 498.3 50.5 498.6 51.1 498.5L57.6 496 54.1 503.7C54.1 504 53.8 504.4 53.9 504.7 53.9 505.3 54.3 505.9 55 506.2 55.9 506.4 56.9 506.4 57.1 505.4L60.7 497.7 63.1 504.2C63.5 505.2 64.5 505.4 65.2 505.3 66.1 504.9 66.3 504 66.3 503.3L62.9 493.7 67.8 483.3 75.7 505.1C76.1 506 77.1 506.3 77.8 506.2 78.6 505.2 79.2 504.2 78.8 503.2Z" fill="rgba(255, 255, 255, 1)"></path><path d="M351.6 522.2L371.4 518.9 367.1 531.7C366.6 533 367.3 534.9 369 536 370.8 536.1 372.7 535.4 373.3 534.1L379.3 517.4 397.7 514.4 385.2 548.3C384.5 550.5 385.3 552.4 387.1 552.6 388.8 553.6 390.7 552.9 391.3 550.7L405.1 513.3 421.7 510.2 446.8 540.1 441.9 554.2 400 561C399.5 561.4 399 561.8 398.5 562.2 398 562.6 397.4 563.9 397.4 564.8 397.6 567.1 399.3 568.2 401.2 567.4L439.5 561.3 433 578.4 413.6 582.2C413.1 581.7 412.7 582.1 412.2 582.5 411.2 583.3 410.6 584.6 410.9 586 411.3 587.4 413 588.5 414.8 588.6L430.5 585.5 422.7 607.1C422.1 608.4 422.9 610.2 424.6 611.3 426.4 611.5 428.3 610.7 428.9 609.4L436.1 589.2 444.7 599.5C446 600.9 448.3 600.7 449.2 599.9 450.7 598.6 451.4 596.4 450.1 594.9L439 581.7 445.5 564.5 468.6 592C469.8 593.5 471.6 593.7 473.1 592.4 474.5 591.2 474.7 589.4 473.5 587.9L448 557.5 453 542.5 491.7 535.9 501.1 547.2 487.3 585.5C486.3 587.2 487.4 589.6 489.2 589.8 490.9 590.8 492.4 589.6 493.5 587.9L506.1 553.1 518 567.3 511.5 584.5C510.9 585.8 512.1 588.1 513.4 588.7S517.1 588.1 518.1 586.4L522.9 573.2 537.3 590.4C538.5 591.8 540.8 591.6 542.3 590.4 543.3 589.5 543.9 587.3 542.7 585.9L528.3 568.7 542.7 565.9C544 565.5 545.5 564.3 545.3 562 544.9 560.6 542.8 559.1 541.4 559.4L523.4 562.8 511.5 548.6 547.9 542.2C549.8 541.5 551.3 540.3 551 538 550.7 536.6 548.6 535 547.2 535.4L506.5 542.7 497.1 531.4 510.4 494.4 526 492.2 551.5 522.6C552.7 524 554.5 524.2 556 523 557.5 521.7 558.1 519.5 556.9 518.1L533.9 490.6 551.9 487.2 563 500.4C564.2 501.9 566 502 567.5 500.8 569 499.6 569.1 497.8 567.9 496.3L559.3 486 580.5 482.4C581.9 482.1 583.4 480 583.1 478.6 582.3 476.7 581.1 475.2 579.2 476L557.1 479.5 562.5 464.9C562.6 463.1 561.9 461.3 560.6 460.7 559.3 460.1 557.9 460.4 556.9 461.3 556.9 461.3 556.4 461.7 556.3 462.6L549.2 481 531.2 484.4 544 447.9C545.1 446.1 544.3 444.3 542.1 443.6 541.2 443.5 540.3 443.4 539.3 444.3 538.8 444.7 538.3 445.1 537.8 445.5L523.9 485.6 509.1 487.9 484 458 490 442.2 529.2 435.2C531.5 434.9 532.6 433.2 531.8 431.3 532 429.5 530.3 428.5 528 428.7L492.4 435.1 498.5 417.5 516.1 414.5C517.4 414.2 518.5 412.4 518.7 410.6 517.9 408.8 516.7 407.3 514.8 408L501.5 410 508.1 391.1C509.2 389.4 508 387.9 506.2 386.8 505.3 386.7 503.9 387.1 503 387.9 503 387.9 502.5 388.3 502 388.7L494.7 409 484.5 396.7C483.6 395.7 481.4 395.1 480 396.3 478.5 397.5 478.7 399.8 479.6 400.8L492.3 416 486.2 433.7 461.1 403.7C459.9 402.3 457.6 402.5 456.1 403.7S454.5 406.8 455.7 408.3L483.3 441.1 477.9 455.6 439.1 462.2 428.5 449.5 442.8 410.7C442.9 408.9 442.2 407.1 440.5 406 439.6 405.9 438.2 406.3 437.2 407.1 436.7 407.5 436.2 407.9 436.1 408.8L423.5 443.6 411.6 429.3 417.7 411.7C418.3 410.4 417.5 408.5 415.8 407.5 414 407.3 412.1 408 411.6 409.3L406.7 423.5 393.5 407.8C392.7 406.8 390 406.5 389 407.4 387.5 408.6 387.3 411.3 388.1 412.3L401.3 428 387 429.9C386.5 430.3 386 430.7 385.6 431.1 384.6 432 384 433.3 383.9 434.2 384.7 436 386.4 437.1 388.2 437.3L406.2 433.9 418.1 448.1 381.7 454.4C379.4 454.7 378.3 456.4 378.7 457.8 378.9 460.1 380.6 461.1 382.4 461.3L423.1 454 433.7 466.7 420.5 503.7 405.3 506.5 377.7 473.6C376.5 472.1 374.7 472 373.2 473.2 371.7 474.4 371.6 476.2 372.8 477.7L397.9 507.6 379.4 510.5 366.7 495.3C365.9 494.4 363.2 494.1 361.7 495.4 360.2 496.6 360.5 498.9 361.3 499.9L371.6 512.1 350.4 515.7C349.9 516.1 349.9 516.1 349.4 516.5 348.4 517.3 347.8 518.7 347.8 519.6 348.5 521.4 350.2 522.5 351.6 522.2ZM438.7 472.6L440.4 468.7 444.1 468.1 475.4 462.7 479.1 462.1 481.6 465.1 501.7 489.1 504.2 492 503 495.6 492.2 525.5 490.9 529 486.8 530 455.9 535 451.7 536 449.2 533.1 429.1 509 426.6 506.1 428.3 502.1 438.7 472.6Z" fill="rgba(255, 255, 255, 1)"></path><path d="M1345.7 200.7L1351.4 189.5 1356.2 196.4C1356.7 197.2 1357.9 197.5 1359.1 197.1 1359.8 196.2 1360.2 195 1359.7 194.2L1353.5 185 1358.9 174.6 1371.3 193.5C1372.2 194.6 1373.4 195 1374.1 194.1 1375.3 193.6 1375.6 192.4 1374.8 191.3L1361 170.5 1365.6 161 1390 159.4 1395.3 167.1 1383.1 190.7C1383.2 191.1 1383.2 191.5 1383.2 191.9 1383.2 192.3 1383.7 193.1 1384.1 193.5 1385.4 194.2 1386.5 193.7 1386.9 192.5L1397.9 171 1404.1 180.6 1398.8 191.7C1398.4 191.8 1398.5 192.2 1398.5 192.6 1398.5 193.4 1399 194.1 1399.8 194.5 1400.6 194.8 1401.8 194.4 1402.5 193.5L1406.8 184.4 1414.8 196.4C1415.2 197.1 1416.4 197.4 1417.6 197 1418.3 196.1 1418.7 194.9 1418.2 194.1L1410.7 183 1419.1 182.5C1420.3 182.4 1421 181.1 1421 180.3 1420.9 179.1 1420 178 1418.8 178.1L1408 178.7 1401.8 169.1 1424.2 167.7C1425.4 167.6 1426.1 166.8 1426 165.6 1426 164.4 1425.1 163.6 1423.9 163.7L1399.2 165.3 1393.4 157.2 1404.5 135.3 1413.7 134.7 1427.8 155.8C1428.3 157 1429.9 157.3 1430.7 156.5 1431.8 156 1431.8 154.8 1431.3 153.6L1418.5 134.4 1430 133.7 1436.3 143.3C1436.7 144.1 1438.3 144.4 1439.1 143.9S1440.2 141.8 1439.7 140.7L1434.8 133.4 1448.8 132.5C1450 132.4 1450.7 131.2 1450.6 130 1450.6 129.2 1449.7 128 1448.5 128.1L1434.5 129 1438.4 120.7C1438.8 119.9 1438.7 118.7 1437.5 118 1436.6 117.6 1435.1 118.1 1434.7 118.9L1429.8 129.3 1418.2 130 1428.5 109.3C1428.8 108.1 1428.7 106.9 1427.5 106.2 1426.7 105.8 1425.1 106.3 1424.8 107.1L1413.4 130.3 1404.2 130.9 1390.5 110.5 1395.2 101.8 1419.9 100.2C1421.1 100.2 1421.9 99.3 1421.8 98.1 1421.7 96.9 1420.8 95.8 1419.6 95.8L1397.3 97.3 1402.2 86.9 1413 86.2C1414.2 86.2 1415 85.3 1414.9 84.1 1414.8 82.9 1414 82.2 1412.8 82.3L1404.4 82.8 1410.4 70.8C1410.8 70 1410.3 68.4 1409.5 68 1408.2 67.7 1407 67.8 1406.7 69L1400.3 81.4 1395 73.4C1394.1 72.6 1392.9 72.3 1392.1 72.7 1391.4 73.2 1391 74 1391.1 74.8 1391.1 74.8 1391.1 75.2 1391.5 75.6L1398.2 86 1393.2 96.3 1379.5 76.3C1379.1 75.2 1377.8 74.8 1376.7 75.7 1376.3 76.1 1375.9 76.6 1376 77.4 1376 77.8 1376 78.2 1376.1 78.6L1391.1 100.5 1386.8 108.7 1362.4 110.3 1356.7 101.4 1367.7 79.1C1368.4 77.8 1367.9 76.7 1366.7 76.3 1365.9 75.6 1364.7 76.1 1364 77.3L1354 97.6 1347.4 88 1352.4 78C1352.7 77.2 1352.3 76 1351.4 75.3 1350.2 75 1349 75.1 1348.7 76.3L1344.7 83.7 1337.7 73.4C1337.2 72.2 1336 72.3 1334.8 72.7 1334.4 73.2 1334.1 74 1334.1 74.8 1334.1 74.8 1334.2 75.2 1334.2 75.6L1341.7 86.7 1331.7 87.4C1330.9 87.4 1329.8 88.3 1329.9 89.5 1329.9 90.7 1331.2 91.4 1332 91.4L1344.4 90.6 1351 100.2 1326.6 101.7C1325.4 101.8 1324.7 103 1324.8 104.2S1325.7 106.2 1326.9 106.1L1353.6 104.4 1359 112.5 1347.9 134.4 1337.5 135.1 1323.4 113.5C1322.5 112.8 1321.3 112.5 1320.1 112.9 1319.7 113.4 1319.4 114.2 1319.4 115 1319.5 115.4 1319.5 115.8 1319.9 116.2L1332.8 135.4 1321.2 136.1 1314.6 126.5C1314.1 125.7 1312.9 125.4 1311.7 125.9 1311 126.7 1310.6 128 1311.1 128.7L1316.4 136.4 1303.6 137.2C1302.8 137.3 1301.7 138.6 1301.7 139.4 1301.8 140.6 1303.1 141.7 1303.9 141.6L1316.7 140.8 1312.3 148.7C1312.4 149.1 1312.4 149.5 1312.4 149.9 1312.5 150.7 1312.9 151.5 1313.3 151.8 1314.6 152.2 1315.7 151.7 1316.5 150.8L1321.5 140.5 1333 139.8 1322.7 160.5C1322 161.7 1322.5 162.9 1323.3 163.2 1324.5 164 1325.7 163.5 1326.5 162.6L1337.8 139.5 1348.2 138.8 1361.9 159.2 1357.6 167.9 1330.9 169.6C1329.7 169.7 1329 170.5 1329 171.7 1329.1 172.9 1330 173.6 1331.2 173.6L1355.5 172 1350.1 182.4 1337.8 183.2C1337 183.2 1335.8 184.5 1335.9 185.7 1336 186.9 1337.2 187.6 1338 187.6L1348 186.9 1342 198.9C1342 199.3 1342 199.3 1342 199.7 1342.1 200.5 1342.5 201.3 1342.9 201.7 1344.2 202 1345.3 201.5 1345.7 200.7ZM1353 138.5L1351.6 136.2 1352.7 134.1 1361.6 116.3 1362.7 114.3 1365.1 114.1 1384.6 112.9 1387 112.7 1388.4 114.7 1399.4 131.2 1400.7 133.1 1399.7 135.6 1390.8 153 1389.7 155.4 1387.3 155.6 1367.8 156.8 1365.4 157 1364 154.7 1353 138.5Z" fill="rgba(255, 255, 255, 1)"></path><path d="M751.8 35.3L753.5 46.3 747.1 44.2C746.5 43.9 745.5 44.3 745 45.1 744.9 46 745.3 47 746.2 47.1L754.1 50 755.9 58.5 739.4 52.4C738.5 52.3 737.6 52.7 737.3 53.3 737 54.4 737.3 55.4 738.2 55.5L756.5 62.2 758.8 75.4 745.1 68.5 749.5 83.2 736.9 78.7 733.3 59.6C733.6 59.4 733.4 59.1 733.2 58.9 732.8 58.4 732.1 58.1 731.4 58.3 730.7 58.5 730.2 59.3 730.1 60.2L733.4 77.5 725.3 74.3 723.7 66C723.7 65.6 723.5 65.3 723.3 65.1 723.1 64.8 722.5 64.6 721.8 64.7 721.1 64.9 720.6 65.8 720.7 66.5L721.7 73.1 711.2 69.5C710.3 69 709.6 69.6 709 70.5 708.7 71.1 709.1 72.1 710.2 72.4L720.6 76.2 715.4 80.5C714.7 81.2 714.8 82.3 715.2 82.8 715.9 83.5 716.8 83.6 717.5 83L724.1 77.4 732.2 80.6 719 91.8C718.3 92.4 718.2 93.3 718.8 94 719.2 94.5 720.4 94.8 721.1 94.2L735.8 81.8 748.3 86.3 735.8 94.8 750.5 98.3 740.2 106.9 722.2 100.4C721 100.1 720.3 100.7 720 101.4 719.7 102 720.1 103 721 103.5L737.5 109.2 730.9 114.8 722.8 112.1C721.9 111.5 721 111.9 720.6 113 720.3 113.7 720.7 114.6 721.8 114.9L728 117.3 719.4 124.5C718.7 125.1 718.6 126 719.2 126.7S720.8 127.6 721.5 126.9L730.1 119.7 731.3 126.2C731.5 127.3 732.3 127.8 733 127.7 734.2 127.6 734.7 126.7 734.3 125.7L733 117.2 739.6 111.7 742.4 128.9C742.8 129.9 743.7 130.4 744.4 130.2 745.5 130.1 746 129.2 745.7 128.3L742.3 109.4 752.6 100.7 753.5 115.8 764 104.9 766.3 118 751.6 130.4C750.9 131 751 132.2 751.4 132.7 752.1 133.4 753 133.5 753.7 132.8L767.1 121.5 768.7 130.3 762.1 135.8C761.3 136.4 761.3 137.3 761.9 138.1 762.3 138.6 763.4 138.9 764.1 138.3L769.3 133.9 771.3 144.8C771.4 145.9 772.3 146.5 773.2 146.1 773.9 145.9 774.7 145.3 774.3 144.4L772.5 133.3 778.9 135.4C779.6 135.7 780.5 135.3 780.8 134.7 781.1 134 780.9 133.3 780.7 133.1 780.5 132.8 780.3 132.6 779.8 132.6L771.9 129.6 770.1 121.1 786.6 127.2C787.5 127.3 788.5 126.9 788.8 126.3 789 125.6 788.9 124.9 788.5 124.4 788.3 124.2 788.3 124.2 787.8 124.2L769.5 117.4 767.2 104.2 781 111.1 776.5 96.4 789.1 100.9 792.7 120C792.9 120.7 793.5 121.5 794.6 121.3 795.3 121.2 795.9 120.3 795.9 119.4L792.6 102.1 800.8 105.3 802.3 113.6C802.3 114.5 803.1 115 804.3 114.9 805 114.7 805.5 113.8 805.6 112.9L804.3 106.5 814.9 110.1C815.8 110.6 816.5 110 817 109.1 817.1 108.7 816.9 108 816.7 107.8 816.5 107.5 816.3 107.3 815.8 107.2L805.5 103.4 810.6 99.1C811.3 98.4 811.2 97.3 810.8 96.8L810.8 96.8C810.2 96.1 809.3 96 808.5 96.6L801.9 102.2 793.8 99 807 87.9C807.7 87.2 807.8 86.3 807.2 85.6S805.7 84.8 805 85.4L790.3 97.8 777.7 93.3 790.2 84.8 775.5 81.3 785.8 72.7 803.9 79.2C805 79.5 805.7 78.9 806 78.2 806.3 77.6 805.9 76.6 805.1 76.1L788.8 70.2 795.1 64.8 803.3 67.6C804.1 68.1 805.1 67.7 805.4 66.6 805.7 65.9 805.3 65 804.5 64.5L798.1 62.3 806.6 55.1C807.3 54.5 807.4 53.6 806.8 52.9S805.3 52.1 804.5 52.7L796 59.9 794.7 53.4C794.8 53 794.6 52.7 794.3 52.5 793.9 52 793.5 52 793 51.9 791.9 52.1 791.4 52.9 791.7 53.9L793.1 62.4 786.4 68 783.6 50.7C783.4 50.4 783.2 50.2 783 49.9 782.6 49.5 782.1 49.4 781.7 49.4 780.5 49.5 780 50.4 780.4 51.3L783.8 70.2 773.5 78.9 772.5 63.8 762 74.7 759.7 61.6 774.4 49.2C775.1 48.6 775 47.5 774.6 47 774 46.2 773.1 46.2 772.3 46.8L759.1 57.9 757.4 49.4 764 43.8C764.7 43.2 764.8 42.3 764.2 41.5S762.6 40.7 761.9 41.3L756.8 45.7 754.7 34.8C754.8 34.4 754.6 34.1 754.4 33.9 754.2 33.6 753.5 33.4 752.8 33.5 752.1 33.7 751.4 34.3 751.8 35.3ZM769.8 71.1L770.6 83.4 782.6 86.2 772.3 93.3 775.8 105 764.7 99.7 756.2 108.5 755.4 96.2 743.4 93.4 753.5 86.5 750.2 74.6 761.1 80.1 769.8 71.1Z" fill="rgba(255, 255, 255, 1)"></path><path d="M1087.1 125.3L1130.7 141.6 1147.5 179.4 1106.3 175.1 1077.3 138.9C1077.3 138.9 1076.8 138.5 1076.8 138.5 1075.9 137.9 1074.4 138.1 1073.3 138.7 1071.8 139.7 1071.7 141.8 1073.1 142.7L1098.6 174.3 1078.6 172.3 1067.2 158.5C1067.2 158.5 1066.7 158.2 1066.7 158.2 1065.8 157.5 1064.3 157.8 1063.2 158.4 1061.7 159.4 1061.6 161.4 1063 162.4L1070.6 172 1055.9 170.4C1054.6 170.2 1052.9 171.6 1052.7 172.9 1052.1 174.6 1053.9 175.9 1055.2 176.1L1069.9 177.7 1060.3 185.3C1058.8 186.3 1058.7 188.3 1060.1 189.3 1061.1 190.8 1063.1 190.8 1064.1 189.5L1077.9 178.1 1097.6 180.5 1066 206C1064.5 207.1 1064.5 209.1 1065.8 210.1 1066.9 211.5 1068.9 211.6 1069.9 210.2L1106.1 181.2 1147.3 185.4 1122.7 219.4 1076.5 226.8C1075 227.1 1074 228.4 1074.2 230 1074.5 231.5 1075.8 232.5 1077.4 232.3L1118.1 225.8 1106.2 242.1 1089 244.9C1087.5 245.1 1086.5 246.5 1086.7 248 1087 249.6 1088.3 250.6 1089.9 250.3L1101.6 248.5 1092.4 261.2C1091 262.2 1091.7 264.1 1093.1 265.1 1094.4 266 1096 265.8 1097 264.4L1105.5 252.6 1107.4 264.4C1107.6 265.9 1109 266.9 1110.6 266.7S1113.1 265.1 1112.9 263.5L1110.1 246.3 1121.9 230 1128.4 270.6C1128.7 272.2 1130.1 273.2 1131.6 272.9 1133.2 272.7 1134.2 271.3 1133.9 269.8L1126.5 223.6 1150.8 190.1 1167.7 227.9 1151.6 270.1C1151.1 271.8 1152.1 273.3 1153.5 274.2 1155.2 274.8 1156.6 273.7 1157.6 272.4L1172 234.4 1180.1 252.7 1173.6 269.4C1173 271.1 1174.1 272.6 1175.4 273.5 1177.1 274.1 1178.6 273 1179.2 272.1L1183.4 260.6 1189.6 274.1C1190.1 275.2 1191.9 276.5 1193.4 275.5 1194.8 274.4 1195.8 273.1 1194.8 271.6L1188.6 258.2 1200.1 262.4C1201.8 262.9 1203.2 261.9 1203.9 261 1204.1 259.7 1203.8 258.2 1202.9 257.5 1202.9 257.5 1202.5 257.2 1202.5 257.2L1185.8 250.6 1177.6 232.3 1215.6 246.7C1217.3 247.2 1218.8 246.2 1219.4 245.2 1219.6 244 1219.4 242.4 1218.5 241.8 1218.5 241.8 1218 241.5 1218 241.5L1174.5 225.2 1157.6 187.4 1198.8 191.6 1227.9 227.9C1228.9 229.3 1230.9 229.4 1231.9 228 1233.3 227 1233.4 225 1232.1 224L1206.6 192.4 1226.5 194.4 1238 208.2C1239 209.6 1241 209.7 1242 208.4 1243.4 207.3 1243.5 205.3 1242.1 204.3L1234.6 194.7 1249.3 196.4C1250.5 196.6 1252.3 195.1 1252.5 193.8 1252.7 192.6 1252.1 191.5 1251.2 190.8 1250.8 190.5 1250.3 190.2 1249.5 190.3L1234.8 188.6 1244.4 181.1C1245.9 180.1 1246 178 1244.6 177.1 1244.6 177.1 1244.2 176.7 1244.2 176.7 1243.2 176.1 1241.7 176.3 1240.6 176.9L1226.8 188.3 1206.8 186.3 1238.4 160.8C1239.8 159.8 1239.9 157.8 1238.6 156.8 1238.6 156.8 1238.1 156.4 1238.1 156.4 1237.2 155.8 1235.6 156 1234.5 156.6L1198.3 185.7 1157.1 181.4 1181.4 147.9 1227.5 140.5C1229.1 140.2 1230.1 138.9 1229.8 137.3 1229.6 135.8 1228.2 134.8 1226.7 135L1186.3 141.1 1198.1 124.7 1215.3 122C1216.9 121.7 1217.9 120.4 1217.6 118.8S1216 116.3 1214.5 116.5L1202.7 118.4 1211.3 106.6C1212.3 105.2 1212 103.7 1210.7 102.7 1209.3 101.7 1207.7 102 1206.7 103.3L1198.2 115.1 1196.3 103.4C1196.2 102.6 1196.1 101.8 1195.2 101.2S1193.5 100.6 1192.7 100.7C1191.1 101 1190.1 102.4 1190.4 103.9L1193.1 121.1 1181.3 137.5 1174.8 96.8C1174.7 96 1174.6 95.2 1173.7 94.6 1173.2 94.2 1172 94 1171.2 94.2 1169.6 94.4 1168.6 95.8 1168.9 97.3L1176.3 143.5 1152 177 1135.1 139.2 1151.4 95.7C1151.6 94.5 1151.3 92.9 1150.4 92.3 1150.4 92.3 1150 91.9 1150 91.9 1148.3 91.4 1146.9 92.4 1146.2 93.3L1131.8 131.3 1123.7 113 1130.2 96.3C1130.4 95.1 1130.2 93.5 1129.3 92.8 1129.3 92.8 1128.8 92.5 1128.8 92.5 1127.1 92 1125.7 93 1125 93.9L1120.9 105.4 1114.7 92C1114.2 91.6 1114.1 90.9 1113.7 90.5 1112.8 89.9 1111.5 89.7 1110.4 90.3 1109 91.3 1108 92.6 1109 94.1L1115.2 107.5 1103.7 103.4C1102 102.8 1100.6 103.9 1099.9 104.8 1099.4 106.5 1100.4 107.9 1101.3 108.6L1118 115.1 1126.1 133.5 1088.2 119.1C1086.5 118.5 1085 119.6 1084.4 120.5 1084.7 122.8 1085.4 124.7 1087.1 125.3Z" fill="rgba(255, 255, 255, 1)"></path><path d="M538.7 157.8L544 169.1 535.6 168.7C534.7 168.6 533.7 169.4 533.3 170.6 533.5 171.7 534.3 172.7 535.2 172.8L546.3 173.6 551.2 184.2 528.7 182.4C527.2 182.4 526.2 183.2 526.4 184.3 526.1 185.5 526.9 186.5 528.3 186.5L553.2 188.4 557.8 197.9 544.1 218.1 534.8 217.6 523.6 193.5C523.3 193.3 522.9 193 522.6 192.8 522.3 192.6 521.4 192.5 520.8 192.6 519.5 193.1 519.2 194.3 519.9 195.3L530.2 217.3 518.7 216.3 513.2 205.3C513.4 204.9 513.1 204.7 512.7 204.5 512.1 204 511.2 203.9 510.4 204.4 509.6 204.8 509.3 206 509.5 207.1L514.1 216 499.8 215C498.9 214.9 497.9 215.7 497.5 216.9 497.8 218 498.5 219 499.4 219.1L512.8 220 508.1 227C507.4 228 508 229.3 508.6 229.8 509.6 230.4 511.1 230.4 511.8 229.4L517.8 220.5 529.2 221.5 516.7 240C516 241 516.2 242.1 517.2 242.8 518.2 243.5 519.3 243.3 520 242.3L533.9 221.8 543.8 222.2 554.3 244.3 549.2 252 523.8 250.2C522.6 249.8 521.3 250.9 521.5 252.1 521.2 253.3 522.2 253.9 523.4 254.3L546.5 255.9 540 265.5 528.5 264.5C527.7 264.4 526.4 265.5 526.3 266.4S527.3 268.5 528.5 268.9L537.3 269.5 529.4 281.1C528.7 282.1 529.3 283.4 530.3 284.1 530.9 284.5 532.4 284.5 533 283.5L540.9 272 545 280.1C545.5 280.9 546.5 281.6 547.8 281 548.6 280.6 549.2 279 548.7 278.2L543.6 268 550.1 258.4 560.1 279.2C560.9 280.2 561.9 280.9 563.2 280.4 564 279.9 564.6 278.4 564.1 277.6L552.8 254.4 558 246.8 582.5 248.5 586.5 257.5 572.6 278C571.9 279 572.1 280.1 573.1 280.8 574.1 281.5 575.5 281.5 576.2 280.5L588.8 261.9 593.9 272.2 587.9 281.1C587.2 282.1 587.4 283.2 588.4 283.9 589.4 284.6 590.5 284.4 591.2 283.4L595.9 276.4 601.7 288.6C602.1 289.4 603.7 289.9 604.4 289.5 605.4 288.7 606.1 287.7 605.3 286.7L599.5 274 609.1 274.8C610.2 274.6 611.2 273.8 611.3 272.9 611.5 272 611 271.2 610.4 270.8 610.4 270.8 610 270.6 609.5 270.7L597.2 269.6 592 259.3 616.2 260.7C617.4 261.1 618.4 260.3 618.4 258.9 618.3 258.3 618.2 257.8 617.6 257.3 617.2 257.1 616.9 256.9 616.6 256.6L590.1 255.1 586.2 246.6 599.9 226.4 610.4 227.3 621.3 249.7C621.8 251 623.1 251.4 624.1 250.6 625.2 250.4 625.5 249.2 625 247.8L615.1 227.6 626.7 228.2 631.5 238.2C631.9 239 633.2 239.4 634.3 239.1 635.3 238.4 635.9 237.4 635.2 236.4L631.7 228.7 644.2 229.5C645.4 229.8 646.1 228.8 646.5 227.6 646.3 227 645.9 226.3 645.2 225.8 645.2 225.8 644.9 225.6 644.6 225.4L631.2 224.5 636.8 216.2C637.2 215.5 637.2 214.1 636.3 213.4 635.3 212.8 633.9 213.3 633.5 214L626.5 224.2 614.9 223.6 628.6 203.4C629.3 202.4 628.7 201 627.7 200.4S625.6 199.9 624.9 200.9L609.9 223.1 600.2 222.3 589.7 200.2 595.5 191.6 621.2 193.5C622.3 193.3 623.3 192.6 623.7 191.4 623.6 190.8 623.1 190 622.5 189.6 622.2 189.3 621.8 189.1 621.3 189.2L598.2 187.6 604.7 178 616.4 178.6C617.2 178.8 618.3 178 618.6 176.8 618.4 175.7 617.6 174.7 616.7 174.5L607.4 174 614.6 163.4C615.1 162.8 614.7 161.1 614.1 160.6 613.1 160 611.4 160.3 611 161L603.8 171.5 600.2 163.3C599.9 163.1 599.5 162.9 599.2 162.6 598.5 162.2 597.6 162.1 597.1 162.2 596.1 162.9 595.7 164.2 596 165.3L601.1 175.5 594.6 185.1 584.5 164.3C584 162.9 582.8 162.6 582 163 580.7 163.6 580.3 164.8 580.5 165.9L591.9 189.1 586 197.7 561.5 196 557.3 187.3 572.3 165.2C573 164.2 572.8 163.1 571.8 162.4 570.8 161.7 569.7 161.9 569 162.9L555.3 183.1 550.4 172.5 557.4 162.3C557.8 161.6 557.5 159.9 556.5 159.3 555.5 158.6 554.2 159.1 553.7 159.8L548.1 168.1 542.3 155.9C542 155.7 542 155.7 541.7 155.5 541 155 540.1 154.9 539.6 155 538.6 155.8 538.2 157 538.7 157.8ZM583.3 201.7L586 202 587 204.1 595.6 222.1 596.6 224.2 595.2 226.2 584.2 242.4 582.8 244.4 580.5 244.2 560.7 242.8 558.3 242.7 557 240.4 548.8 222.7 547.4 220.3 548.8 218.3 559.8 202.1 561.2 200.1 563.8 200.5 583.3 201.7Z" fill="rgba(255, 255, 255, 1)"></path></g><defs><mask id="SvgjsMask1102"><rect width="1440" height="560" fill="#ffffff"></rect></mask><filter id="SvgjsFilter1103"><feGaussianBlur stdDeviation="1"></feGaussianBlur></filter></defs></svg>